<svg width="19" height="26" viewBox="0 0 19 26" fill="none" xmlns="http://www.w3.org/2000/svg">
<path d="M9.66676 0C9.05343 0 8.42676 0.0533335 7.8001 0.186667C4.1201 0.893333 1.18676 3.86667 0.493429 7.54667C-0.146571 11.0267 1.13343 14.2267 3.45343 16.2933C4.02676 16.8 4.33343 17.5067 4.33343 18.2533V21.3333C4.33343 22.8 5.53343 24 7.0001 24H7.37343C7.8401 24.8 8.6801 25.3333 9.66676 25.3333C10.6534 25.3333 11.5068 24.8 11.9601 24H12.3334C13.8001 24 15.0001 22.8 15.0001 21.3333V18.2533C15.0001 17.52 15.2934 16.8 15.8534 16.3067C17.7868 14.6 19.0001 12.1067 19.0001 9.33333C19.0001 4.17333 14.8268 0 9.66676 0ZM10.3334 14.6667H9.0001V11.2133L6.5601 8.78667L7.50676 7.84L9.66676 10L11.8268 7.84L12.7734 8.78667L10.3334 11.2267V14.6667ZM11.6668 21.3333C11.6534 21.3333 11.6401 21.32 11.6268 21.32V21.3333H7.70676V21.32C7.69343 21.32 7.6801 21.3333 7.66676 21.3333C7.29343 21.3333 7.0001 21.04 7.0001 20.6667C7.0001 20.2933 7.29343 20 7.66676 20C7.6801 20 7.69343 20.0133 7.70676 20.0133V20H11.6268V20.0133C11.6401 20.0133 11.6534 20 11.6668 20C12.0401 20 12.3334 20.2933 12.3334 20.6667C12.3334 21.04 12.0401 21.3333 11.6668 21.3333ZM11.6668 18.6667H7.66676C7.29343 18.6667 7.0001 18.3733 7.0001 18C7.0001 17.6267 7.29343 17.3333 7.66676 17.3333H11.6668C12.0401 17.3333 12.3334 17.6267 12.3334 18C12.3334 18.3733 12.0401 18.6667 11.6668 18.6667Z" fill="#FBDB33"/>
</svg>
