<svg width="24" height="30" viewBox="0 0 24 30" fill="none" xmlns="http://www.w3.org/2000/svg">
<path d="M10.92 0.813374L1.58667 4.96004C0.626667 5.38671 0 6.34671 0 7.40004V13.6667C0 21.0667 5.12 27.9867 12 29.6667C18.88 27.9867 24 21.0667 24 13.6667V7.40004C24 6.34671 23.3733 5.38671 22.4133 4.96004L13.08 0.813374C12.4 0.506707 11.6 0.506707 10.92 0.813374ZM8.38667 20.72L4.93333 17.2667C4.41333 16.7467 4.41333 15.9067 4.93333 15.3867C5.45333 14.8667 6.29333 14.8667 6.81333 15.3867L9.33333 17.8934L17.1733 10.0534C17.6933 9.53337 18.5333 9.53337 19.0533 10.0534C19.5733 10.5734 19.5733 11.4134 19.0533 11.9334L10.2667 20.72C9.76 21.24 8.90667 21.24 8.38667 20.72Z" fill="#FBDB33"/>
</svg>
