<svg width="33" height="32" viewBox="0 0 33 32" fill="none" xmlns="http://www.w3.org/2000/svg">
<g clip-path="url(#clip0_169_6418)">
<path d="M16.3334 5.33337C9.66675 5.33337 3.97341 9.48004 1.66675 15.3334C3.97341 21.1867 9.66675 25.3334 16.3334 25.3334C23.0001 25.3334 28.6934 21.1867 31.0001 15.3334C28.6934 9.48004 23.0001 5.33337 16.3334 5.33337ZM16.3334 22C12.6534 22 9.66675 19.0134 9.66675 15.3334C9.66675 11.6534 12.6534 8.66671 16.3334 8.66671C20.0134 8.66671 23.0001 11.6534 23.0001 15.3334C23.0001 19.0134 20.0134 22 16.3334 22ZM16.3334 11.3334C14.1201 11.3334 12.3334 13.12 12.3334 15.3334C12.3334 17.5467 14.1201 19.3334 16.3334 19.3334C18.5467 19.3334 20.3334 17.5467 20.3334 15.3334C20.3334 13.12 18.5467 11.3334 16.3334 11.3334Z" fill="#FBDB33"/>
</g>
<defs>
<clipPath id="clip0_169_6418">
<rect width="32" height="32" fill="white" transform="translate(0.333374)"/>
</clipPath>
</defs>
</svg>
