<?xml version="1.0" encoding="UTF-8" standalone="no"?>
<!-- Created with Inkscape (http://www.inkscape.org/) -->

<svg
   xmlns:dc="http://purl.org/dc/elements/1.1/"
   xmlns:cc="http://creativecommons.org/ns#"
   xmlns:rdf="http://www.w3.org/1999/02/22-rdf-syntax-ns#"
   xmlns:svg="http://www.w3.org/2000/svg"
   xmlns="http://www.w3.org/2000/svg"
   xmlns:sodipodi="http://sodipodi.sourceforge.net/DTD/sodipodi-0.dtd"
   xmlns:inkscape="http://www.inkscape.org/namespaces/inkscape"
   width="190mm"
   height="55mm"
   viewBox="0 0 190 55"
   version="1.1"
   id="svg8"
   inkscape:version="0.92.1 r15371"
   sodipodi:docname="logo.svg">
  <defs
     id="defs2">
    <style
       id="style4485">.cls-1,.cls-2{fill:#fff;}.cls-1{fill-rule:evenodd;}</style>
    <clipPath
       id="clipPath4542"
       clipPathUnits="userSpaceOnUse">
      <path
         inkscape:connector-curvature="0"
         id="path4540"
         d="M 0,307 H 744 V 0 H 0 Z" />
    </clipPath>
  </defs>
  <sodipodi:namedview
     id="base"
     pagecolor="#ffffff"
     bordercolor="#666666"
     borderopacity="1.0"
     inkscape:pageopacity="0.0"
     inkscape:pageshadow="2"
     inkscape:zoom="0.35"
     inkscape:cx="-127.14286"
     inkscape:cy="560"
     inkscape:document-units="mm"
     inkscape:current-layer="layer1"
     showgrid="false"
     width="200mm"
     inkscape:window-width="1920"
     inkscape:window-height="1025"
     inkscape:window-x="-8"
     inkscape:window-y="-8"
     inkscape:window-maximized="1" />
  <metadata
     id="metadata5">
    <rdf:RDF>
      <cc:Work
         rdf:about="">
        <dc:format>image/svg+xml</dc:format>
        <dc:type
           rdf:resource="http://purl.org/dc/dcmitype/StillImage" />
        <dc:title></dc:title>
      </cc:Work>
    </rdf:RDF>
  </metadata>
  <g
     inkscape:label="Camada 1"
     inkscape:groupmode="layer"
     id="layer1"
     transform="translate(0,-242)">
    <g
       transform="matrix(0.29332244,0,0,-0.29332244,-14.115918,314.52497)"
       inkscape:label="EQUATORIAL ENERGIA [LOGO]"
       id="g4534">
      <g
         id="g4536">
        <g
           clip-path="url(#clipPath4542)"
           id="g4538">
          <g
             transform="translate(162.1631,133.2471)"
             id="g4544">
            <path
               inkscape:connector-curvature="0"
               id="path4546"
               style="fill:#6c6ea8;fill-opacity:1;fill-rule:nonzero;stroke:none"
               d="m 0,0 c 0,-7.186 -2.854,-12.406 -8.547,-15.742 -4.524,-2.654 -11.016,-3.926 -19.484,-3.926 -8.453,0 -14.942,1.369 -19.563,4.225 -5.402,3.433 -8.171,8.855 -8.171,16.332 v 18.095 c 7.571,1.272 23.808,3.83 23.808,3.83 V 0.191 c 0,-1.572 0.288,-2.851 0.972,-3.828 0.696,-0.793 1.777,-1.189 3.156,-1.189 1.38,0 2.355,0.396 3.048,1.189 0.696,0.977 0.993,2.256 0.993,3.828 V 19.662 H 0 Z m 121.37,-18.299 h -23.7 v 3.242 c -1.275,-1.275 -3.242,-2.357 -5.905,-3.242 -2.458,-0.887 -5.411,-1.369 -8.847,-1.369 -5.014,0 -9.248,1.272 -12.499,3.926 -3.232,2.652 -4.815,5.797 -4.815,9.551 v 38.349 c 7.774,0.492 15.735,0.977 23.807,1.373 V -0.205 c 0,-2.949 1.38,-4.426 4.13,-4.426 1.371,0 2.354,0.297 3.048,0.994 0.684,0.877 1.081,1.967 1.081,3.34 V 34.02 c 7.774,0.396 15.731,0.697 23.7,0.986 z M 154.815,36 V 23.422 c -1.053,-0.465 -1.834,-0.967 -2.363,-1.496 -1.176,-1.178 -1.775,-2.66 -1.775,-4.43 V -0.205 c 0,-1.465 0.396,-2.555 1.09,-3.432 0.742,-0.666 1.755,-0.976 3.048,-0.994 V -19.07 c -2.173,-0.426 -4.919,-0.598 -8.363,-0.598 -7.079,0 -12.097,1.272 -15.146,3.732 -2.952,2.557 -4.428,6.387 -4.428,11.506 v 19.471 c 0,7.773 5.317,14.266 15.936,19.375 1.081,0.492 2.171,0.986 3.145,1.379 z M 61.379,0 c 0,-6.191 -2.073,-10.922 -5.998,-14.168 l 6.386,-11.906 H 42.095 l -3.441,6.502 c -1.573,-0.096 -3.136,-0.096 -4.922,-0.096 -8.545,0 -15.132,1.369 -19.862,4.225 -5.604,3.433 -8.35,8.855 -8.35,16.332 v 26.15 c 7.763,0.885 15.731,1.57 23.797,2.359 V 0.191 c 0,-1.572 0.288,-2.851 0.983,-3.828 0.685,-0.793 1.764,-1.189 3.154,-1.189 1.368,0 2.352,0.396 3.038,1.189 0.697,0.977 1.09,2.256 1.09,3.828 v 29.905 c 7.774,0.58 15.637,1.177 23.797,1.765 z m 173.886,-18.299 h -15.048 c -10.331,0 -16.621,1.371 -18.983,4.131 -2.354,2.854 -3.444,9.248 -3.444,19.281 v 31.465 l 12.394,0.106 11.412,-0.106 V 5.297 c 0,-2.834 0.976,-4.805 2.853,-5.99 1.372,-0.782 3.544,-1.178 6.39,-1.178 h 4.426 z m 89.211,52.227 v -52.227 h -23.809 v 53.207 c 8.068,-0.287 15.937,-0.588 23.809,-0.98 M 296.048,0 c 0,-7.283 -2.756,-12.588 -8.258,-15.742 -4.43,-2.654 -10.822,-3.926 -19.283,-3.926 -8.557,0 -15.24,1.369 -19.873,4.225 -5.594,3.433 -8.451,8.855 -8.451,16.332 v 35.593 c 8.066,-0.099 16.035,-0.291 23.806,-0.396 V 0.191 c 0,-1.572 0.391,-2.851 1.073,-3.828 0.693,-0.793 1.671,-1.189 3.06,-1.189 1.369,0 2.459,0.396 3.145,1.189 0.683,0.977 0.98,2.256 0.98,3.828 v 35.704 c 8.057,-0.206 15.94,-0.493 23.801,-0.782 z m 89.211,-18.299 H 361.458 V 31.67 c 8.053,-0.502 16.033,-1.188 23.801,-1.779 z M 154.815,-19.07 v 14.439 h 0.194 c 1.088,0 2.064,0.297 2.651,0.994 0.898,0.877 1.282,1.967 1.282,3.432 v 24.984 c -1.649,-0.404 -3.038,-0.855 -4.127,-1.357 V 36 c 9.191,0.219 18.482,0.402 27.928,0.482 v -54.781 h -21.042 v 3.735 c -1.187,-2.165 -2.949,-3.534 -5.316,-4.131 -0.49,-0.137 -1.011,-0.258 -1.57,-0.375 M 417.958,26.738 V 23.41 c -1.041,-0.459 -1.844,-0.965 -2.412,-1.484 -1.178,-1.178 -1.67,-2.66 -1.67,-4.43 V -0.205 c 0,-1.465 0.301,-2.555 0.975,-3.432 0.761,-0.676 1.806,-0.976 3.107,-0.994 V -19.07 c -2.141,-0.426 -4.969,-0.598 -8.412,-0.598 -7.084,0 -12.096,1.272 -15.051,3.732 -2.949,2.557 -4.424,6.387 -4.424,11.506 v 19.471 c 0,5.215 2.266,9.738 6.983,13.772 7.111,-0.657 14.074,-1.35 20.904,-2.075 m 57.49,-45.037 h -23.801 v 40.918 c 8.262,-1.09 16.219,-2.267 23.801,-3.539 z m -57.49,-0.771 v 14.439 h 0.145 c 1.177,0 2.064,0.297 2.759,0.994 0.78,0.877 1.174,1.967 1.174,3.432 v 24.984 c -1.615,-0.404 -2.978,-0.855 -4.078,-1.369 v 3.328 c 9.598,-1.033 18.906,-2.133 27.889,-3.347 v -41.69 h -21.059 v 3.735 c -1.178,-2.165 -2.943,-3.534 -5.297,-4.131 -0.482,-0.137 -0.982,-0.258 -1.533,-0.375" />
          </g>
          <g
             transform="translate(134.2759,158.4131)"
             id="g4548">
            <path
               inkscape:connector-curvature="0"
               id="path4550"
               style="fill:#2f2e79;fill-opacity:1;fill-rule:nonzero;stroke:none"
               d="m 0,0 c -34.042,-4.758 -63.338,-10.484 -86.499,-17.004 14.092,6.213 34.032,11.844 58.633,16.811 v 33.937 c 0,7.274 2.652,12.684 8.052,16.029 4.63,3.049 11.21,4.526 19.678,4.526 L 0,54.289 V 39.248 C -1.147,39.23 -2.122,38.74 -2.896,37.969 -3.686,37.186 -4.062,36.01 -4.062,34.426 V 12.203 H 0 Z M 61.331,7.014 C 54.079,6.357 46.958,5.66 39.992,4.92 26.057,3.434 12.693,1.783 0,0 v 12.203 h 4.089 v 22.223 c 0,1.584 -0.288,2.76 -0.984,3.543 -0.694,0.781 -1.667,1.279 -3.047,1.279 H 0 v 15.041 c 8.307,-0.008 14.739,-1.387 19.333,-3.924 5.708,-3.242 8.553,-8.459 8.553,-15.744 V 8.836 c 1.833,0.232 3.667,0.465 5.519,0.687 v 24.221 c 0,7.274 2.749,12.684 8.354,16.029 4.758,3.012 11.258,4.485 19.572,4.516 V 39.248 c -1.175,0 -2.159,-0.498 -2.952,-1.279 C 57.59,37.186 57.203,36.01 57.203,34.426 V 12.232 l 4.128,0.413 z m 64.225,10.668 v 35.923 h 23.702 V 18.908 c 2.122,0.084 4.253,0.192 6.395,0.28 v 15.433 c 0,7.186 2.854,12.393 8.759,15.744 4.361,2.41 10.486,3.77 18.279,3.916 V 39.248 c -1.176,0 -2.16,-0.498 -2.942,-1.279 -0.79,-0.783 -1.174,-1.959 -1.174,-3.543 V 19.998 l 4.116,0.115 V 13.869 C 139.467,12.771 98.577,10.418 61.331,7.014 v 5.631 l 4.127,0.406 v 21.375 c 0,1.584 -0.384,2.76 -1.077,3.543 -0.687,0.781 -1.67,1.279 -3.05,1.279 v 15.041 l 0.299,0.01 c 7.768,0 14.258,-1.776 19.573,-5.219 5.316,-3.244 8.065,-8.062 8.065,-14.459 V 15.172 c 1.41,0.105 2.817,0.232 4.234,0.338 V 53.605 H 117.29 V 17.176 c 2.738,0.178 5.497,0.351 8.266,0.506 m 57.135,36.599 c 0.463,0.008 0.927,0.018 1.39,0.018 8.452,0 14.751,-1.477 18.985,-4.33 5.005,-3.242 7.572,-8.762 7.572,-16.225 V 20.67 c 4.975,0.078 9.993,0.127 15.047,0.156 v 18.422 h -10.62 v 14.357 h 10.62 V 73.08 h 23.801 V 53.605 h 12.787 V 39.248 H 249.486 V 20.826 c 6.238,-0.037 12.433,-0.097 18.584,-0.201 v 13.119 c 0,7.274 2.857,12.684 8.453,16.029 4.756,2.993 11.211,4.479 19.486,4.516 V 39.248 c -1.093,0 -2.066,-0.498 -2.855,-1.279 -0.793,-0.783 -1.278,-1.959 -1.278,-3.543 V 20.131 l 4.133,-0.113 v -6.233 c -19.006,0.512 -38.451,0.781 -58.237,0.781 -18.694,0 -37.091,-0.242 -55.081,-0.697 v 6.244 l 4.14,0.102 v 14.211 c 0,1.584 -0.396,2.76 -1.08,3.543 -0.696,0.781 -1.67,1.279 -3.06,1.279 z m 113.318,0.008 0.397,0.01 c 7.752,0 14.254,-1.776 19.463,-5.219 5.416,-3.244 8.066,-8.062 8.066,-14.459 V 19.002 c 1.543,-0.066 3.086,-0.135 4.631,-0.199 v 34.802 h 23.797 v -3.24 c 1.041,0.819 2.4,1.571 4.07,2.196 V 38.855 c -1.351,0 -2.404,-0.3 -3.086,-0.984 -0.695,-0.685 -0.984,-1.764 -0.984,-3.25 V 17.545 l 4.07,-0.26 v -6.017 c -19.494,1.107 -39.695,1.961 -60.424,2.517 v 6.233 l 4.125,-0.12 v 14.528 c 0,1.584 -0.297,2.76 -0.984,3.543 -0.682,0.781 -1.772,1.279 -3.141,1.279 z M 401.24,58.92 h -11.906 v 17.414 h 11.906 z m -44.807,-6.359 c 0.551,0.195 1.127,0.388 1.738,0.552 2.641,0.789 5.594,1.186 8.942,1.186 5.023,0 9.047,-1.379 12.291,-4.139 3.344,-2.65 4.928,-5.894 4.928,-9.744 V 15.318 c 1.669,-0.127 3.343,-0.263 5.001,-0.406 V 53.605 H 401.24 V 8.143 c -14.459,1.195 -29.412,2.238 -44.807,3.125 v 6.017 l 4.088,-0.25 v 17.391 c 0,2.951 -1.281,4.429 -4.033,4.429 h -0.055 z m 44.807,6.359 h 11.902 V 76.334 H 401.24 Z m 0,-5.315 h 11.902 V 12.744 c 7.834,-0.783 15.484,-1.611 22.912,-2.49 9.203,4.566 13.879,7.865 13.879,9.818 v 14.354 c 0,1.584 -0.307,2.76 -0.994,3.543 -0.693,0.781 -1.766,1.279 -3.143,1.279 -1.082,0 -2.066,-0.498 -2.853,-1.279 -0.781,-0.783 -1.178,-1.959 -1.178,-3.543 V 15.25 h -23.019 v 19.371 c 0,7.186 2.955,12.393 8.754,15.744 4.722,2.555 11.218,3.934 19.673,3.934 8.45,0 14.75,-1.477 18.979,-4.33 5.014,-3.242 7.57,-8.762 7.57,-16.225 V 5.113 c 0.397,-0.056 0.793,-0.136 1.176,-0.193 1.564,-0.24 3.107,-0.502 4.641,-0.752 v 72.164 h 23.787 V -0.193 C 527.929,-5.16 547.863,-10.791 561.947,-17.004 530.183,-8.053 486.802,-0.576 435.466,4.92 424.421,6.098 412.992,7.17 401.24,8.143 Z" />
          </g>
          <g
             transform="translate(468.7734,85.6807)"
             id="g4552">
            <path
               inkscape:connector-curvature="0"
               id="path4554"
               style="fill:#5f6062;fill-opacity:1;fill-rule:nonzero;stroke:none"
               d="m 0,0 2.391,7.66 c 0.56,1.852 1.015,4.014 1.478,5.826 H 3.951 C 4.416,11.674 4.938,9.549 5.525,7.668 L 7.979,0 Z m 8.939,-4.281 2.819,-8.828 h 6.09 L 7.742,17.998 h -7.24 l -9.965,-31.107 h 5.858 l 2.669,8.828 z m -37.048,-8.828 h 5.674 v 31.102 h -5.674 z m -14.586,17.17 h -10.989 v -4.477 h 5.51 v -7.756 c -0.746,-0.375 -2.267,-0.646 -4.303,-0.646 -6.461,0 -10.802,4.205 -10.802,11.267 0,7.244 4.658,11.17 11.304,11.17 3.282,0 5.352,-0.596 7.063,-1.338 l 1.252,4.612 c -1.438,0.644 -4.43,1.437 -8.266,1.437 -10.295,0 -17.306,-6.332 -17.306,-16.16 -0.051,-4.707 1.572,-8.818 4.341,-11.441 2.952,-2.815 6.926,-4.157 12.192,-4.157 4.146,0 8.015,1.014 10.004,1.756 z m -54.32,9.601 c 0.548,0.143 1.71,0.279 3.502,0.279 3.695,0 6.096,-1.574 6.096,-4.99 0,-3.094 -2.401,-5.133 -6.23,-5.133 h -3.368 z m -5.623,-26.771 h 5.623 v 12.793 h 2.866 c 3.229,-0.1 4.709,-1.391 5.582,-5.452 0.88,-3.869 1.61,-6.406 2.075,-7.341 h 5.867 c -0.657,1.205 -1.487,4.8 -2.451,8.683 -0.78,2.998 -2.121,5.168 -4.341,5.998 v 0.135 c 2.905,1.063 5.636,3.783 5.636,7.795 0,2.643 -0.969,4.814 -2.685,6.232 -2.072,1.766 -5.111,2.487 -9.596,2.487 -3.28,0 -6.464,-0.27 -8.576,-0.637 z m -15.145,18.414 h -11.72 v 8.045 h 12.414 v 4.648 h -18.084 v -31.107 h 18.779 v 4.668 h -13.109 v 9.134 h 11.72 z m -52.146,-18.414 v 11.121 c 0,5.134 -0.042,9.242 -0.283,13.244 l 0.136,0.06 c 1.533,-3.513 3.607,-7.343 5.595,-10.707 l 8.123,-13.718 h 5.856 v 31.107 h -5.259 V 7.148 c 0,-4.748 0.145,-8.769 0.513,-12.916 h -0.098 c -1.427,3.368 -3.233,6.963 -5.306,10.426 l -8.024,13.34 h -6.464 v -31.107 z m -20.356,18.414 h -11.72 v 8.045 h 12.414 v 4.648 h -18.086 v -31.107 h 18.781 v 4.668 h -13.109 v 9.134 h 11.72 z" />
          </g>
        </g>
      </g>
    </g>
  </g>
</svg>
